<mxfile host="app.diagrams.net" modified="2021-07-21T09:09:19.985Z" agent="5.0 (Windows NT 10.0; Win64; x64) AppleWebKit/537.36 (KHTML, like Gecko) Chrome/91.0.4472.114 Safari/537.36" etag="ac6J6Dh_j-4VKr197633" version="14.9.0" type="github">
  <diagram id="sc22aSumvXQxUjIN3xdQ" name="Page-2">
    <mxGraphModel dx="782" dy="395" grid="1" gridSize="10" guides="1" tooltips="1" connect="1" arrows="1" fold="1" page="1" pageScale="1" pageWidth="827" pageHeight="1169" math="0" shadow="0">
      <root>
        <mxCell id="fT3RPPVzGP8Eb9JpN_7Q-0" />
        <mxCell id="fT3RPPVzGP8Eb9JpN_7Q-1" parent="fT3RPPVzGP8Eb9JpN_7Q-0" />
        <mxCell id="XeP2XozeaBdxD3bJYFSb-0" value="GitLab" style="shape=image;html=1;verticalAlign=top;verticalLabelPosition=bottom;labelBackgroundColor=#ffffff;imageAspect=0;aspect=fixed;image=https://cdn4.iconfinder.com/data/icons/logos-and-brands/512/144_Gitlab_logo_logos-128.png" vertex="1" parent="fT3RPPVzGP8Eb9JpN_7Q-1">
          <mxGeometry x="300" y="104" width="38" height="38" as="geometry" />
        </mxCell>
        <mxCell id="XeP2XozeaBdxD3bJYFSb-1" value="" style="aspect=fixed;html=1;points=[];align=center;image;fontSize=12;image=img/lib/mscae/Docker.svg;" vertex="1" parent="fT3RPPVzGP8Eb9JpN_7Q-1">
          <mxGeometry x="360" y="104" width="50" height="41" as="geometry" />
        </mxCell>
        <mxCell id="XeP2XozeaBdxD3bJYFSb-2" value="Kubernetes" style="shape=image;verticalLabelPosition=bottom;labelBackgroundColor=#ffffff;verticalAlign=top;aspect=fixed;imageAspect=0;image=data:image/png,iVBORw0KGgoAAAANSUhEUgAAAOEAAADhCAMAAAAJbSJIAAAAk1BMVEX///8ybeb+/v4qaOVqkuwybeUnZ+UtauUhZOT8/f/2+f4eY+Tu8/0gZOXx9f34+v7f6PsWYOSnvvNxluzl7PyRrfCCou7H1ffX4vqfuPJijOrP2/ji6vu+z/ZCd+c9dOd8n+5Ug+mXsvG1yPWJp+9Ie+h2mu2uwvTC0vdljutch+pOgOkAW+PK2figufKxxPQAVuM2He6FAAAXLElEQVR4nO1dCZviKrOOiQFi4hJ3TWvc7da2+/v/v+6GrECAAMbumbnnfZ5zZkYN8LIURVVRsaz/8B/+Awmb+uNfg21T//jnWP57jGgI+P3jrFP8axztuqT562evzf49mE4HzBd/M0dmgEbXyTl23fi+ex/83cQKVBwSql50cfsAwk4HQoDOq+AfmKEUoi4CnQrQdw/BvzGO2Ui930LYYeCD0/RfEDpJq4fHuw9dlmACAC6jv1Lm0E0efO/7tfErOcLL0vt7mGWgxIs1GN99R8Qv5ehMIvtvmqA0v97Y9YXjV8AJPx7W3zKO9Pyczhy/iV4KGN6P1t/B0Sb+8nbqgGZyBcf+/Tj406UpPT9HJxcp80s5ovu495cIVsxvDvT4pRz97Zgexz+HI9OoaBKqz08KYQcrOtafyDFH0iB7cUPS7UEOBE6jP5BYDqy+vK/BE/wwgDsfWX8kyaRJ3ubWf5Jfp+N2ENwt/xCKjOA73uvqtRmAP1nS9rjf4UvVn6gvbfHDcML7QlDZT7Fj1JevuN8ePQwXotumR1bys+oAzS84bFGL41cAov2xR1b2gxypOqeHTsvjV3EM79/D3xQ6uGYj9UWHo7vq/RrHpNrlxTdUX9SBOofpLynlXjSBL+eXAIL49PYjSjm5O2Dr4AT8BL+UI4KpMvfa/dGmRdpiHZqpLxAaiV0EXq3oUN3nbbaG/JC7m++bLRs8OJ8fkaBJbWNwvfe51sFmgNkA949rtns6YP3+IsscaZ3oXc/G2zuaZXN8ERoW4IDb+/Bl7HLr4NZsjqVwB2lxtnUzPoJAf3/02hQ6DL8DVLOeCVp3ycqzresTWkKiBGBFp+3JmlqXZk9uf2BeNOv9OT3Ij7Hrqm2M5u6z219rDJMNMsaKDjECz5HD6tm8BfUlmaV5eeOndVnYj2fT55iVLnfMb9JvQ32BNy8vc/e0saODlYB5Gwpr8vzj9tlGgxL4QV7mvZ3jJAixteNZfosbaO10G2aWCbvX1oHLdZxuqczpDWbxTG/+rHWQhH/NSg8+2ysTwLH3xAgGt2f2vxr8Q1bwqEWGycyYm1JMRnDf7vkInbKSH6ZaGxeuPzGTN8lDXWCmYIsAJllvH1tl2HH7M6Ntw7aOqF2CHbjO7IPjVud+gnBptjMaHnLEgPs04statW28gutip9XCpt25hBtyzxgeWjfPhVEDGQ5sb926lbeYpa2PIZZhtvYgBm23ouOG+W6xaHW3wChmhxai1iep082GMNFL258eb/oMV20LvM7no5hFQdw2RX+Td54GJi2qaxCFIYL9Uk0exj7+oL0KOuCkQS3rh2DbVt3I33Znx8eI8JVZvWl0PEzOyG9LrU9OZrqiZtnKiRCA7WU8Gnhk35XwetPv3d1pZyzdaZ2DdAhbOIZjW8N8kR4JuWpj9uFgebg7LfQmWKiPX2bw2z1tlQnXm0F94Hj9GZ3g0y5ycLAaK6Mq7p1lVQJfHlPpdvzOjA7+kdSF/QTHvbxEDGknOGtNnW0kq8ndfR3WMhnhb/Ui1THHRVe6IB1w/7gDR3IW0DwlbsTLEN6x1B++C/vUycZPF95DYjBB66g37D0kMwupmmxymXsSL0OwzEJdRjF3XkF/Yha4ZVvedyw4sPnzYTonpuKp7H/rVSruLDgpdp4pTzNB7sLUxJc81Zt98txa/ikr07Zmwp53LloMA/FsIA7UtVF0IUo629iCiUks9/X1gXblpFiIV89W64z4ECulYF60J2kOsxadeCOooj6q/HHGw8iuRjTplYVK/AG++p6fFCc7wZ2Jg0pE/Q7cuCsw4+IFxHNez7Nyg3r9txuq31yCoG0dxPIhfNdh2JVtBdeyQjvp0+qX4YQzQ1N6wWJ1OYdEpNo7vO3GUY/9cVa5NXUrE5jrr4fVV0OJZQXM1BlanpgfLuqb+Omj7HBsDWWnHv7n8nD2PxGEgLA0RA6E/ifYX/mxpMO1X1D0u4QPxZtINC24VnEP52WN5KdftCMCspfbrFZwZfnhf76t7iAfZkhsWEv8kYvDSG7j2g0vLFN3GUXYLwcGj+1Ebt4s3CIK+G44/aLzsVr80zUCoAOO9d7ylju3msVwVH1XqUyJej7jrN7h3E9OJqhzLXfoRLM7y3Vl9FDhlpU2b1K7oX9/z+pNFa7FV8gQTAX/BVGCiFB0puRYIDjnuAJ3n+vx4a0i+FiHDREg/kqVoTW4NxDEHMNJUJGx6mpacGFibtxBFdMxjamvQDgbMBf2E2lUFo4n6KX59AEmylvxm9JRBsBx2R5a7uNxHdecxnGv+k3NgoDi2iwnJcxY6Qi5bVaH8yI3ikYo1OU6mrHO2q1tqPDsVT8d1HykEFyEl0pHH4oXqJYkCzHDRPlTPd+DmK/Qv3OiGuCeqKfHiahB2yVf0Tmqxkig70aGGTSs3RDVVKWk/ANvs4Fr4kfDD04VEB05GoM1Vj7/g0sjt6x8RgxI4Y9rhQwnIU/mOV0yeoxvqwxPtRGwB+qWaXhusu3n30QaRiish9MFBmv+nALU6UZgBkIT5qRuW8tPDR/fiOQhZqjlGgIzRozOBX1exQthzAV1fF6Z9g26GpZptFHZL7DrV4MhOjDPD2f8m82IUoxPPIYudGqTfqwzhOCUWwrlDAdbDcsevPfoApN/RDGv+XRXcOeJvx/VpKmnE3sD7yrGSy1rtxsuOKUkejOHITU8X/U7GtBf1c1lmuswLLxbUnxrMHQEitJ3XCuEOnNx4i/B9sFvms5CbPAF55JWJ+gsHAkKGq1ZCmBD/qSmNqFEpeEbNkYa05SzeXEYagQoJLquqCjv8EmXA6izzYJmCP1vQUl6DobCEChFoOH7TY58RYHMITb5L9pSxk9AKXgRxdDfyxKdTDUWoquwEN/VGZKbOCulkxkXzEk7vUNN6FHF0IUwETG1GUqUzN1a+Gi2fNs6+70TEaSmx3rXHUmrGcUwqGQpukcWu+N41wHx0VJdMoTC2V50mu3dlEsr4nSyh+fhqtZQ662y78aUjl6ZnP0LG0aRPHf6XBFleeoe90JzkkzTgTLBDmW5SPo5ZH3pdnrOyGwP8EwdT4N8bYEO5+TrTfyOXxnObI0LGnDPNVGS0Agyias229ZH0s3+hBPVkgkc12esmZdUDIXJGbpmgBzcEKsCacRuTPNS6sg/+1IOMiFUaTuzP7rog21w8q/epQ8cfz2gPw72PkDOmL3lg00yWcynOyA+lJi6GfjvQoZF3ypPecqKnlvnwH1as5omAmfS/aqpr73j6VC7jpY8OzpnRtFk8yZkjXq/N4WdBFLvNgWHMDGXgsPp8ChyetXmfYjVUDe3GZIrypZ4+9hWrRtEzUh5OsAJMUnH5eqF/qLOhpvMs/4hNiGWmpDrL4gvJB5bBsKwk7w29RtJ/Wv18PBWdTGEsi1JhqQJV+LIAXbEd5EyQ0dk+c6HttHaXYLUHqgDFwTsxqhMcEWVQ5o/A+VDK1jJTsH2cK9aEIyJZcjoQX7doKREkNHOwDuxDpTPUKTFi60gwZuykksYB21vzdjvw4vBBQG8z9MMdwRD5V0MutkTgi5Wv1QGiB35jf3SRWvNeJNkg6ydKOGWGI2Hesv4yndelDjUgQUidsNN7SkX7N80ZmrS4W+3etWICIuduqrTy+fYlSsoL0PC38kPAXFi7vFfwBDv8/Uy+oRZoO7pEMHZiRnagfpZszoq2NaNVzmE7GyR9OyIGw1F2GJt76I8vc6SmtTVbngeVsXw7R4Q1EZxtExR07YFXnV4I34zU1bcxGEnicBSXs5FTC6GyN3oH5gKIgicBAAGDEXRId4lfqZ+0YYbdpLv97IgExqkDSoS5KehlBJ8KirOQM6aDkvxRJsdICSyqlOzOnjxNEX1ZUh6IQSXa9ykpqqS5G+TYqTSwyJZv2gMfWIpR8oM4YdwN56qn36LSyoYV37dkLQ9MV5Fnz7ZLwUVkxZ1jca59YN43thvDYbEkZ1nu4LIj2mD/5Gay5DWjzcON5VPSG4X6vc//IhkRdLUsdoRDGvbodOH+9M73ZE9ej9jg5an18sW1PIRkpaggbpdWBh20lPf7ykzCnV2gw5y1+Nl3R5EB2wxR3HMNnjM7pCOhA6JE1pP3aQIRKGmU+Ui6DGsGDr+p7vb4O2orvjS3qb+hv0+fWD0/YGIyzQh4YboqXc/zMMnbbpwLWs3hyEEobP+Esd7LOklIHLpWF50uCdFpXyoMdRwiYnCTnS82+RukaxDiPrn+THweLaJHFSQEDyLzJopyVGyKn3g0OtQIytcn2OExeBFgAgZEoEdq9C9zZbsKw9YeKQ64YicVmkh6apcnPbwf8RcDjTu0tG6RtkudUNBB++qFZvFdeQ10EttnsS9ys9Dw6/xt8PRitjxRxoM4Z0kVkInyCQpo9S8JVYRCoODk+UngiE8NF/5ZEOkJaHnHIyYslJo3c51YMA+39hiq4dzMEF/+6WYKJD6TVPMKwXEUb41bD34CL/+avSA1GqwcZ6w831slrn729XwvvPCTuyexjIEe7N0jZij6etJvEDd0onDBOuVKFq7IfDDcD0wa2VKzuxJHPx9/xS/ZoFByLleIg8ySfbz0Hc67rl7ukZtpkzTuuC2ONxciK8QA6eBKhV2kp9+ZREPEN1P1/doGvSG+b4ga1fe6OF0uYm8hiHD3rTvr8UoKP8p+2l6szbaXGfz3fosTZzKCzuROCFhfFS60J9Ts3vBcnO47GOAUJc1WNSafewg1Ifn9Xy8eBsM83JEzxCe72A5k8TFOPVQU1kYJ74L0jSb8q+96Wa127sgmUhp9X63wfq9zPfIZH37cLs+XR8Kw5l/PZJQjGtLSeIqRw0KSIbBaPF12cNkuVKWQdSQk4M+kzooWWVuwjN64+SArLkgJSH3aMT+WKJ2hyIzeaXVHC/3GPmIk5sUXLkPl0/yzKAQ9EMn3hOhptkaZFjasuuI4ZFonmXJM5mEhP0xVYqj1W736E2JPf/rMyHHtWPxtAsSwqh5SJowrN5oer19nI5TcmhtSRwlODFDPpDEdoePqkirt5hvAQII3jqEo114I5MJMqlDvA1vSb3w6MfJDEGoM/kOyuzlycfCp+GNWYgia1f64246I3Cx0SkO82UGkzKqeSDSN/yGFE62J7LRktY8uzrZJdp7F5u4Us+5TA9jvd1HmV7r79LuDDZn6t0cfWJ9TgUpZ2DDxU5xNJBPioopOZdhuB2nWTbKqAbu84+8guJgITtBuyC+rGZrl7kwT/Sy6HqBc/Fo0WANaxE0/HGg704wOSwgcM6TizwbILrSDA9yGwEEoF4c4Wi3sxuFNYRUtgrbmp7262+P/ozvLKFic+16sEnSIvlZA33RDNVDochCyJ2Ad78AbukZ+YbFBRv+FvCWMGkH0olrIxo3phlK16EIxGUtm5s3CI3pGZmluAuP9CBytkQYkzFUQmkkZVhkHcrLkclSSSlkWzmZ9CC5VdjFZXrYofXxqD7diDCM5C9a9pWyCOb+jGw/FIOahV7tli5te67SlvpftHON9SG7aE4+Jr3fLGwak/1LJ1SIBKUbTdm5RMUQ26QXLqC+YE0wlJqQDL1J09CsOBYWfy7NcqjFPT6FtKE3iodXCcQ+GWyKlzD1nPtJK8LcMIEm+KxRPQuBNSioaitWhOkI/CPF8Kvi7zpLqm76ufBKPWeU/JvUiIpBfJPn8BEBLol56l3I1tDXcqlbjdSlZNsaEY+5iNxNbGtg0vPQ7ZWTtJA2Mi1WBocKZx8Qlw/JrKI2e4hwaPcpoRGhC20j2ZkkUYURVUZBceab5CvNdYccwblsa5++YME0YU9+SWRSRB+0IVbHIVaiz70cZFt6Fw9L+JS7flDc6cInEuJzpmzX31DztLBH+ExyC6P8g34tEroYRB2jcAXsKSOmRHBLp6NLq6S1SAoqerNUTtHEoiWESaeDrtjCtzR6RQqaE41KZH8aVQJdqql1iU/b+6bpINZ83+ox+hVgLDt0m0kbn7bFDLHwBytSzrxzrnfH1La+A8lxgSJt64RcEiizxNhMaRZnR1Mu9J0u6+g71NF3yAssJO+YJLonAB32/tPUpL/9BtOXdTHpNpxdh1o+0xvl5B1zBSIZvGh7twlr4eTmEmskOBOZdotPe3ejHRaO6MJ6leZpi7zL5LafaLXsDb3A4F0tLuj2hFKm+Jwf6tlIcctQJOsRWQzJvEq1Zg0EmQvkzTg3eBHSmo5Gr8JztoKYYFscp+PcRcZ72xoaZbyXpy4vpc3BSLeBLisoimLF0b2f/BwIyWeBEUF5iHfVPO/SN6IIanFOKaL/Cae9E3N9WslZ7mwiDdgbgGKiA40AN5Ii4r5qIprfIQKsLgEd0I9vgiSZi1iWxlMEwMsXVyOX4c3s9W8dfz7gyere6Li7xQ7AcPAfCDnb22kz5b1jLPlgbCbsSimj4lY2zamPzhx5k1UYjKLj1+E0n58OX8dolIVQ1fnhnBNmlfOzH/AbY+F85WZvfoCfh6EgMTLLRFD/u2v20omQLwXE7diZ5oJG+4fY7Wvb/LuIJQY7wwzfOOBVfY5imGgUGWCTy1CCETfxiwLw609UqWXg2AaVGSqkTRPBzGxL2h8VaJbex8jwHQ1QN+80CRP7fSc1cOtN0ey36jdoGIrLsghdaIQ6k/hUzglJMzSVNtWpCLv6G8JU0m+D8mRjtPjVgkVqtWLdxkjaFC+Qw6vqNk6Da0U5g/HH3mAx35bHS5N3TlQ3lHQnjV2/HKoAt1J/T33oo/tskR5tbSp9ZPG35XXihsC5F7kHDBa/UybjMln+Bk43HASRHg8XMJvk/TA8z6/RG61ke8Hy/bBOvstCoj5PecJubScF7LyZE7QNXj5VZv8aEJGS0EEInvcfl9PssFodZvPu+h4DRGzuLnpk/cL3lksQPp4Q3bkNTAu5z5CTQBPmSjdCWAFndXvQzZ9Tz56A4fZXTxHEZ+2b3kEmf4ujLKs7H4WLRyMzB7bLGEuZSqDqWbxy964tMK9JkMcm8G2rIjj34RNSpiCqlQpznb9WYGjg1szTdNlz9buUscFrnjhQf5kfLK+oaySvKpD7amy+/ZiL8uUyhiNYnaQUF79b5ZVTTtRboXBWySIOaZRX256Zoun/vL3aiDiFQ00jgwgBMChqVZOnoCtotgGCrRLFsEzBp55Ohnz8WHSpUp5fZ19oh09tF3kJkcqQwHP5exOvGE73UDyvcH8HbmuJC56CirQpD4YaaZ0obMtpqrDyHY1XWMlQFiJK/EsyLO/ESd6VIkPx5gyVMQzHT2+EFMXk/7fmmIgsIDz5rZG3vFM4TWshRBz0d88SqxNV0KbyVzh6CuPNB8hvZzTmMQG39qRMNYpRc0gRWD+CYGHiFsvh7BdBsGwMT8BSpj2CFRRiUB2wjWt5AzTgOijeSt89ljF87sRUQ1nYqfVXk5ohZNOat0Qx+f8T8689uGVAkNmrwaREtc5ur4Jza3v5kVi2/iZrbVRSplWU8+Fo6JNqkeGjra2eSxTn0flVii5Wz18zR8t+MwtgbItg0z2qNigOflPagLX3yjmal/yL0gbGxtfktfB70qYMn3spzWSdr35H2ri+IO1M+/CMAhifRi2H38tgW0PTA+AzAN3nrb8q5LL/sy8g/QHAzjNONH2ikjciv4igIw07bJNbDqMrmU+gvAj4cppFNZ5xSJEJXP/wM7OTJNo7N7xSsk0A9m1lP0JxahifZYDyotZPjiN+F/BP6eAQvMbw1IyfkjaC4OMXopwwc7NAST24kqy5Lyfaq+VRfwHC2isWfxJe99UGRvg5s35eypD4jv0XilTon8tg1d8hmNQa4Ddvp3m6WwZIir2NTRPYtcKt+HMQrXbd9jGZj5fDF5h9tSm++Lz9ysK1KrdfgN8iRrL6sZp+qqJfqvlPGM1/GvIkkf8K7JcImv8fffcf/kOC/wPqdl5UIilDsQAAAABJRU5ErkJggg==;" vertex="1" parent="fT3RPPVzGP8Eb9JpN_7Q-1">
          <mxGeometry x="460" y="104" width="35" height="35" as="geometry" />
        </mxCell>
        <mxCell id="XeP2XozeaBdxD3bJYFSb-4" value="Harbor" style="shape=image;verticalLabelPosition=bottom;labelBackgroundColor=#ffffff;verticalAlign=top;aspect=fixed;imageAspect=0;image=data:image/jpeg,/9j/4AAQSkZJRgABAQAAAQABAAD/2wCEAAoHCBQUFBUVExUYGBgYGhgYHBsbGBgZHBkbGBgbHRsZFSIbIS0kGx0rIhkYJjclKi4xNDQ0GiM6QDoyPi4zNDEBCwsLEA8QHxISHzEqJCsxMzE3MTMzMzExPj43ND4zMz0+PjYxMzEzMzQzOTEzMzkzMTYzMTMzMzMzNTE0MzMzPP/AABEIAOEA4QMBIgACEQEDEQH/xAAbAAEAAgMBAQAAAAAAAAAAAAAABgcDBAUBAv/EAEQQAAIBAgIGBgcECQQBBQAAAAECAAMRBCEFBhIxQVEiYXGBkaEHEzJScrHBQmKCkhQjM3OistHS8CRDwuE0U1Rjg5P/xAAZAQEAAwEBAAAAAAAAAAAAAAAAAQMEAgX/xAApEQADAAIABAUFAQEBAAAAAAAAAQIDEQQSITETQVFhgSIycZGhQrFS/9oADAMBAAIRAxEAPwC5oiIAiIgCIiAIifDEAXOQEA+4kU0vrth6V1p/rn+6bIO1uP4QZDtJ624utces9WvupdfFva87dUAs/G6So0f2tVE+JgCewbz3Th4rXnCJ7Jep8KW/n2ZVzG5JOZO8nee2eQTon1f0iD/bw5PWzgeQU/Oaj+kKtwo0x2sx/pIZEAmI9INfjSp/xj6zPS9Ib/aw6nsqEfNTIPEAsjD+kCgf2lKonWNlgPMHynZwWs2Eq5LWUHk10N+Q27X7pT0QNF83vPZSOA0pXoH9TUdOoG696m6nwkt0Vr+wsuJp3Hvpke9SbHtBHZA0WFE0dHaSpYhdqjUVxxtvHUwOYPbN6CBERAEREAREQBERAEREAREQBESFa064CntUsMQzi4apkVQ8l4M3kOs3AA7OndYqOFFnO1UIuEW20eRb3V6z3Xlb6b1ir4okO2ynCmtwv4uLnt7gJyqjszFmJZmNySSSTzJO+fMEiImzgsBVrNsUkZ2+6Mh8R3KOskQSa0SbaN1AdrHEVAo91BtN3scge4ySYLVDB07fqts86hL37R7PlBGypLzZTA1W9mm57Ec/IS7KGGSmLU0VRyVQo8hM0DZR50bXG+jVH/1v/Sa9RGXJwV+IEfOXxPCAcjA2UNEufF6BwtW+3QQk8QoVvzLY+cj+P1Aotc0ajoeTdNfo3mYGyuInb0pqvisPctT20H20uw7xbaHaRbrnEEEmXDYh6bB6bsjDcymx7Ozqlgara3vWYUqyFm4Oikjleoo9neOkMs9wkCwWEerUWnTF2bwA4ljwA5yz9AaJp4WnsrmxsXfix+ijgPrOlOziqSJHPZr0qnOZ5DWgns9iIkEiIiAIiIAiIgCIkQ111j9QvqaTfrGHSYb6anlyY8OQz5QDQ1y1qILYfDtY5h3B3c0Q8+Z4bt+6BREEifVOmzMFQFmY2AAJJPIAb5s6N0fUxDinSXaY58go4s54D/MzLT1f1cpYVbjpVCOlUIz7E91erjxvAI5oLUS9nxZtx9Wp/nYfJfHhJzhcMlNQlNFVRuCgAeUzxBAiIgCIiAIiIAiIgHkjmn9VsNXBcj1T79tRvP313N5Hrnfq1AoJJsBvM4OKxpqNyUbh9T1zuIdFd5FJo6C0UmHSw6Tt7T239Q5KOU7KNNJGmwjS9zopVb6m6jTZpvNBGmwrSqkWyzeiR6prXhVqpS9ZtFm2Sy5ohO7abdvyyva+dpIZUWiIiAIiIAiIgHL0/pRcLRao2Z3KvvMdw7N5PUDKdxFd6js7naZiWY8yfkOqd7XXS/r8QUU9CldV5Fvtt4iw6l65HIJE2dHYGpXqLTpi7N4AcWY8AP8AM5rAXyGZPAZk9QlsapaBGFpXcD1rgFj7o4IOoceZ7oBu6C0NTwtMImZNi7kZu3M8gOA4eJPWiIIERPIB5eJDNcNNbqVF2DK12ZWItYGyXHG5ueVh3d/QmlkxKBlPSFgynep+oOdj/wBgUzmmqcryK1kl1o60REuLBERAPJjqVAoJJsBmSYq1AoLMQABck7gBzkQ0rpY1mstwgOQ977x+glmPG7fsVZMihe5sY/SJqtlko3Dn1nrmFGmkjTOjTdyKVpGLndPbN1GmwjT5weBd7G2yvM/QcZ2sPglTrPM/TlM+S5RfjimR3TWlxhEVnR2LXCi1hce8x3eZkG0rp+viLh22U9xcl/Fxbv8AKWzpPR6Yik1OoLqw7weBXkRKc0ngHw9V6T+0p38GB3MvUR/ThM9U2aplI1JZuounPXU/U1DepTAsTvdNwPWRkD3HjKym3ozHPQq06iZsrDL3gciveLjvnJ0XhEw4eqHVWAIDAMAQQRcXsQcweqZoIEREATi61aT/AEbDO4NnPQT4m4jsF2/DO1K09I2P26yUQcqa7R+N+fYoX8xgEPiJ9IhYhVFySABzJNgB3wdEt1A0N6yoa7joUjZeupvv+EWPaV5SzJz9C6PGHoU6Q+yOkfeY5se8kzoQciInkA8Miusen9m9Kic9zMPs81X73M8O3c1k06QTRpEhtzNut1J19fDhnuiJnm8Xxevpn5Zjz5/8ya9SfOExr0HFSm1mHgw4qw4g/wCZz6qTVqTHjeuqMqei1NBaaTFJtLk4sHQnNT9QeB+txOvKSwmNeg61KTbLL4EcVYcVPL62MtXV3TiYultqCGU7Lr7rW4HiDwM9fDl5lp9zfhy83R9zsT4qOFBJIAAuScgAN5MOwAJJsBmSeFpAdY9PmsfV0zamDmffI4n7vId/K2zDhrJWkdZsqxztmbTmmzWbZS4pg9hYjierkO/s5yNPrReia1exVbL7zZL3e93SX6P1epU7Fum3NhkOwf1vN1ZMeJcqMM48mV8zOJo/RlSrYgWXmch3cTJLgdFJTsT0m5n6DhOjaY6lRVF2IAHEkAecxXmqzbGGY6mSJyK+n6K5KSx+6MvE5eF5oVdPO3sgKPzHzy8pE4bfkTWaF5klJkS1w0WmKVDTZRVQ2vnYod4JA4HMd/OPXM2bMT2n5cpmpmd+Bruzjx2+yOJgdTqYsars55L0F795PiJKNH6PpUv2dJE6wOke1jme8z4pmbdMyHKXYlU33N+icpkmvSM2JS+5cux7ERIJPJSOlsX66vVqXuHdiPhvZf4QJb2nsR6vDV3G9ab27dkhfMiUqIJQki1GwPrcWjEdGmDUPaMl77kH8MjssT0a4a1KtU4u4UdiLfLvc+EAm8REECeT2IBBNZ9FlGasWBDvYCxuLqTn+WYdGavPXQVFcAEkWIPA9U7mu37Gn+8H8jzPqj/4w+J/nPM8CKzuWumtmPw5eVp+mziPqXUP+6v5TMLajVT/ALqflM+tM601ttlokIqkgHZBLWNiTe4A5ZTsaq6ebEhkqAB1ANxkGB424EHf2idxOB1yyiZnDT5UV5p/RrYaoabMGOyHuAQM75Z9ksTVPQTYRKgd1bbIa4BFgBxvIh6Rv/KP7tfm0smvRV02WF1tmMyCORA9odXGX4ISt+wxQlT15EX0pia2NJpYZf1INmc5KxHXxUchcnsm9ovVWlTs1T9Y3WOiOxePffumzidLlRalh6r2yHQKLlw6Qv4CcbF43SVTJaRpjqC37yx+Vp6k87nU6S/PUiuRVutt/joSyriERbsyqBxJAHnOHjdbaC5Jeofuiy95P0BkYqaBxrnaemzNzZ0J8WaBq1i//St+On/dLI4fEvutP5K64jK/tlr4NzE62V3yUCmOobTeLZeQnNau7m7szHmxJ8L7puJqtivcUfiX6TZp6sYnjsj8X/UvTwR9rRS1mr7kzRpmbdMzdTVuvxKfmb+2bFPV6qN7J4n+2cVmx+p3OG/Q1KZm1TM200G43uvgZnTQ5H2x4f8AcorLPqXTjr0NemZt0zMeMwpp06lQHbKIzBbW2tlSbXzte3KQ0a8MN1Af/of7JU7kvmKLApmbQlbjX2oN1FPzsfpJVqnpxsXTqM6qrI9rLe2yVBBN+N9rwlVPZak0d+exE5JI5r3U2cFVHvFF/jUnyBlTyz/SK1sIOuoo/hY/SVhBKEtrUijsYKlzbbY/idreVpUsubVlbYPDfukPioP1gM6sREECInkAjWu37Gn+8H8jzPqkf9MPib5yMaw4h2r1FZiVVrhSSQMuA4bz4zSpY6qq7K1GA5KxAz7J5NcSpzOtexheZLI3r2NHEe03afnO9qGf9S/7s/zLOBUMxUsS9MlqbMpItdWKm3LLhkJVhvltUURXLSZ0/SKf9Sf3a/NpZtm2RskA24gkeREpTG4hqh2qjMzWtdiWNhwz4SfejzG1KqVvWOz2ZQNpi1hs7hfdPQwXun7mrDadv3OvjNIYunc/oy1F5pUN/wApS9+y85w10UEh6DqRvG0LjtBAksAmrjMDTqi1SmrdozHYd47p6MXH+5/TLLjJ/mjhJrnQ406o7k/um3T1qw54sO1T9LzSxmptM50nKnkekvd9oeJnDxWr2Ip702xzTpeXteU0Tj4euz0Z6yZ47rZME1hwx3VPFXHzE2F0rQO6qnewHzldoJsIJ1XBz5NkTxV+aRYS42mdzoexgfrMoqA7iD3yAIJnRZU+F9yxcS/QncSH0nI3EjvM26eIf32/MZW8GvMtWdPyJG6ggg7iCD3yiXQqSp3qSp7QbS3aeJf3j85yqmrWFdizU82JJIdxck3JttWnDxtHayIrWTn0ZVeniF5rTbwLg/MTdOpmFPvr2P8A1BnU1f1cpYV3em9RtpdkhypG8G42VE5ctHapMkE9nk9nJJFPSKt8IDyqIfJh9ZV8tnXultYKr9002/jUHyJlTQShLl1Za+Dw37pB4KB9JTUtrUettYKlzXbU9ztbytAZIYiIIE8nsQCLac0DTtWrlm2tlmt0dm4XIbr2yHGQ4yw9ZX2cLUPUB+ZgPrK8M8bjombXKvLf9PP4mUq6GvUmrUm1UmrUlMGdHxhaIerTQkgO6ISLXAZwCRfjYy1dX9AphFdabs22QTtbOVhbLZAlT0qmzURvddW/KwP0l4CenwqWmzZwyT2z6iImw2CeT2IBp4rR9Kp7aKTztY9xGc4+I1ZXfTYjqbMeIzHnJHE7nJU9mV1jmu6IXW0ZVT2kJHNekPLMd8xpJxNavgqb+0ovzGR8RLlxP/pFL4b0ZGEE2EE6FTQ9vYbub+o/pNZsK6+0p7d48p34k12OPDqe6PUE2EEwoJsIJzRZJmQTaoiayCbdISmi2TLERKyw5+nMN6zDVkG9qbgfFsnZ87SlAZfUpLTOE9TXq0rWCOwHwk3T+ErBKNKWH6NMTenWp+64cdjrbLvTzleSQaj4/wBVjEBPRqA0z2tYr37QA/FALbiIggREQDSx9Km6bFUjZYgZnZud4AN9+XlIxpDVNhc0H2h7rWv3Hce+3bOrrVg3q0lFNbkMGIBF7BWGV9+8ZSLYPS1egbBjYZFHBIHVY5jutPP4mo5tWvlGXM53ql8nKxmHem2y6Mp5EWv2cx1iaFSWFQ1jw9cbGIULf3gHQ99su8C3OaukNTadQbeGqbN8wCdpT8JGY7c5SuHTW8b2v6U+DvrL3/0ruuMj2S8cNU2kVveAPiLyntLaHr4e/rUIX3hmp/EMh2GxlraAqbWFw7c6VM9+wLzVwqabTLeGTTaZ0oiJsNYiIgCIiAIiIAiIgGpikRUZ3AAVSxIyyUXJ8pBtHa7IbCtSK/eQ7Q7wbEec72vWP9VhGUHpVSKY7Dm3dsgj8QlVTpU0Ryplw6N0nRrfsqiueV7MO1TmPCdemMpQ4PHlLX1GWp+iK9R3YuzMNpixCiygC5yHRv3yG9hTokkREgkSt/SPo/Zq06wGTrsN8Sbiesqf4JZE4+tGjP0nDVEAuw6afEuYHeLr+KAU5PVYggg2IIII3gjcRPIg6Lo0FpEYmglUb2FmHJhkw8Qe606crDUHTPqqpoubJVItyWpuH5hYdoWWfByIiIBwdYNMPhmpbKqwba2gbg5bNrEbt54GYaek8JigFqgK24BuiR8LD+oPVN3SmDw9dhTqEbYF1s2ywBO9eYy8pHcfqrUW5pEOvLJW88j5dkwZnlVNpJr0M2R2m2uq9DJpPU85tQe/3WyPcw+o75GjVxODewL0ieB9k9xurdovNuhpXEYZtlWYW3o4JHgc17rTv4TWvD1l2MVTC3yO0NtD25XHeLDnKo8Knufpf8KVyU+n0s09H69KejiaduBdRcfiU527CeyS/R1ak9JGobJpkdHZFlsDawHCxBFuFpFtI6l0Ky7eFqBb5gX20PYb3HiR1Ttaq4Cph8MlKqBtKz7jcEF2YEHv42m3Hzp6r9mnHzp6r9nciIl5cIiIAiIgCIiAIicTWjTAwtBnBG23RQfeI39gGfgOMAguvmk/XYn1am6UQU7WPtHxAX8JkZgm+ZzPM7z2xBJkw9BndKae07Kg7WNh85d+Dw606aU19lFCjsUW+krr0eaM26zVmHRpCy9bsLeS3/MssyAz2IiCBERAKq150R6iuaijoVSWHJX+2vf7Q7TykZl06b0amJotSbK+at7rD2WH+ZgkcZTmLwz0qj06g2XQ7JHX1cwciDxBEEmGWrqfp8YmnsOf1qABvvruDj5Hr7RKqmfBYx6LrUptsspuD8weYO4iAXpE42r+nExdPaXoutg6XzU9XNTwP1BE7EEEP1r0ZWeoKiKWUIB0c2BBY7t/Hhec3AawV6WRbbUZbLXJHUG3jvv2TsY7WN6OIdCoZAVA4MLqpNjuOZOXnNn1mDxmRsHPPoP3H7XZmJ5lJVbeOtVvszG5Tpua0zDT0xg8UAlcKrcnyz+4w3eIM52lNSb3bDv17Lf8WH1HfPjSeqNRbmiwccjZW/tbynDoaTxOEbZVitt6ODs/lO4dYt2yXT7ZZ+URVeWRfJqO2KwT/bosT+FvmjecsHU7TL4uiz1QoZXKdEEAgKrAkEmx6XlOZgtc6FVdjF0wt8ibbaN2i1x4Edc7+hMFhqaMcLs7DttdFtpb2A6OZtuGU04Uk/pe0WYp0/pra9DrRETSaRERAEREARExu4AJJAAFyTkABvJ5CAfOIrqis7sFVQSSdwA3mVBrHplsVWLm4RejTU8FvvP3jvPcOE6WuGsv6S3qqRIoqd+71jDifujgO/laLwSJ90qbOyqgJZiFAG8kmwA758Sd+j/QWf6VUHMUwfBn+YHf1QCW6B0YMNQSkLEgXY+8xzY9nAdQE6cRBAiIgCIiAJE9c9XP0hPW0h+tQbh9tR9n4hw7xytLIgFCRLD1x1V9ZtYjDr097oPt82Qe/wAxx7d9eQSbGAxr0HWpSYq6+BHFWHEHlLR1c1lp4oBTZKoGaE77b2pn7Q6t48zU09RyCCCQQbgg2II3EEbjAJZpl9rEVj98j8pt9JpNOfS0kxJNS7EkktxJJuSec3kcMLqbieFnxXNNtd33PMyY6VNs6WB1jxFGw2ttfda58DvHy6p36WsGDxShMQoU8nsVvzVuHadkyE1Jr1JZiz0lruvRiMtLp3XuS7SmoysNrC1LcQjG6n4WGYHaD2z71D0dWw9TEpWRk2hTIJzVtkuDssMj7Q433SJ4DTNfDn9VUKj3D0kP4TkO0WMnWq2tX6U5pPT2XCl9pTdWAKg5HNT0hlnuOc24qimmlp/wvxuHSa6MlcRE2GsREQBESMab1woULqh9bU91T0VP3m3dwueyAd3GYpKSF6jBVXeSf8ueqVnrRrU+KvTp3SiDu+1UtxfkOS954W5Wl9MVsU+1Va4HsqMkX4R9Tc9c58EiInW1e0E+LqbK9FF9trZL1Dmx5d8EmxqroBsXU6VxSQjbbdf/AONes8eQ7Re2adMKAqgAAAAAWAAFgB1TDgMElGmtOmuyiiwHzJ5k85tQciIiAIiIAiIgCIiAJD9atUVr7VWhZau9l3K/9rde48ecmEQCiK9FkZkdSrKbFSLEHrmOXJpvQNHFraotmA6LjJh/UdRlb6b1Yr4W7EbdMfbUGwH3xvT5dcEnDn0jkG4JB6p8xIa33INpMY32hfynprqeqakSiuFxvstfgqrh4r2M7mdzUGpbGqPeR18g3/GRyeo5BuCQeYNj5SI4fle0zieG5aTTL5mOpVVRdmCjrIHzlHNiah3u5/E39ZhImk06LjxWs2Dp+1XQ9SnbP8F5H8f6QaYuKFJmPvOQo7QBcnylexA0dbSmsWJxFxUqEIfsJ0U7CBmw+ImcmIgkRM+DwlSq4SkjOx4KPMncB1nKT3V/UdEs+Ks7bwgzQfH756t3bBBHdW9VqmKId7pR97i3VTv/ADbu3dLPwWCp0UWnTUKq7gPmeZ6zM6i2QyAn3BAiIgCIiAIiIAiIgCIiAIiIAiIgEa0vqdhq92Ueqc/aQCxP3l3HuseuQzSepmKpXKKKq809rvU536heWxEAoaojKSrgqw3hgQR2g5ifMvLFYSnVGzURXHJlDDznExepeDe9qbITxRmHgDdR4QTsqiJYdf0eUz+zruvxKr/LZmq/o7fhiFPbTI/5mBsg0Sbj0d1P/cL+Rv7plpejv38Tf4advMuflAIHEs3Dag4Vc3ao/UWCj+EA+c7WC0DhaVjTooCNzEbTD8TXPnA2VRo/QmJr29VSdgftEbKfmawPdJdorUACzYmpf7lO4HexzPcB2yeRA2auCwNOiuxSRUXkBv62O8nrM24iCBERAEREAREQBERAEREAREQBERAEREAREQBERAEREAREQBERAEREAREQBERAEREAREQBERAP/9k=;" vertex="1" parent="fT3RPPVzGP8Eb9JpN_7Q-1">
          <mxGeometry x="240" y="101.5" width="40" height="40" as="geometry" />
        </mxCell>
        <mxCell id="XeP2XozeaBdxD3bJYFSb-6" value="Docker Compose&#xa;" style="shape=image;verticalLabelPosition=bottom;labelBackgroundColor=#ffffff;verticalAlign=top;aspect=fixed;imageAspect=0;image=data:image/jpeg,/9j/4AAQSkZJRgABAQAAAQABAAD/2wCEAAoGBxQTEhYREhMXFxYXGRkdGBcYFxkgHxkWHxgZHRcWGRcfHyoiGR8nHRkcIzQkJyswMjExGSE2OzYwOiowMS4BCwsLDw4PHRERHTAhIicwMDAuMDAwMTouMi4wMDAwMDAwODAuODAwMDAwMC4wMDAwODEwMDAwMDAzMy4wLjAwMP/AABEIANsAyAMBIgACEQEDEQH/xAAbAAEAAgMBAQAAAAAAAAAAAAAABQYDBAcCAf/EAEYQAAIBAwEFBQUFBQUFCQAAAAECAwAEESEFBhIxQRMiUWFxBxQygZFCUmKCoSNyscHRM0NTkrIVNGNz4RYXJERUg5Oz0//EABkBAQADAQEAAAAAAAAAAAAAAAABAgMEBf/EACoRAAICAQQCAQMDBQAAAAAAAAABAhEDBBIhMUFREwUikXGh8DJhYoHh/9oADAMBAAIRAxEAPwDs1KUoBSlKAUpSgFKUoBSlKAUpSgFKUoD5SlQ+0t57aBikkmXHNI0eRhpkBlRWK5BB1xzolZDaXZMUqpHf+MkhLO8fz7JEB/8AkkU/pXlPaDGmt1bXFun+Iyq6D94xszL4ajHnVvjnV0ynywurX5LfSqjJtyedRJbywxxtqhCdqSvQl+MLkjmADjlk868wb1TW7qL4RtCxC+8RBlEbE4Xto2ZuFSdOMNgHGQBrTa+y+5FxpSlVJFKUoBSlKAUpSgFKUoBSlKAUpSgFKUoBSlKAUpSgNe5nWNGkY4VVLE+QGT+grithA5C3UblJpf2kh5pIzkuQ6Z7wy2M6EeNda3wVjYXQRSzGCYBQMkkxtgAdTXL9nMpijKEMvCuCOWgr0vp2OM5Sv0eL9YzTxQi4Ouf5ZJ2G8KlhHOvZSHQZOUc/hfx/CcH151MkVWJYVZSrKGU8wRkH5VB7Q2tPbP2EMzBOEMFYK5TJICozAkDC8jnFd2XG8fPa/c83T5VnddP9v+Fqm2CYmMtlJ7u51ZMZikP4o/sn8S4NfRvEv+7bQi7EyApxZ4opM6YWT7JIPJsVQp9rXD/Hcy+gfhB08FC1H3ESjLHHQFmOTqcZLHXqK4MmNNOSVHr4MsotRk7/AJ7O5+zTaTPDJaSNxSWchi4jzaLAMLnzKaflNW2qN7KbcuLvaBBC3cwMYIxmGMFY3x0zk/QVea89nqo+0pSoApSlAKUpQClKUApSlAKUpQClKUApSlAKUpQHmud7+7Hs45OOK4S3unOexVWcTE9XgjBcE/4ij1zVj9oW32sbGWeMZl0SIf8AEc8KnHXGS2OvDiq1uru+LdO0kJkuZO9NM5yzOcZXiPQfyrTG5KVxdGeWMJR2zVp+Cq2+1sFUuYmgkPJZAQrfusdD6c6gNtvxXcvkI1H+XiP+quobU2Ub5vclVOAANNK6huzU5CiNTzlbDYPJQCTzAPuz9kFgjZL3Dg47rSgDQAc0VW5Dxrtlrm0oy5p9nmw+mQhNzxuk1VP9UchZgNSceun8asG526Mt7PGJIJDbcYMrkFVKKCQoY44ssFB4c6E8uddh2VulZWxDQ2sSsvJyvE4/9xst+tTQFYZNS5KkqOrFpFBpt2YoYlRQiKFVQAoAwAoGAAByAFZqUrlOwUpSgFKUoBSlKAUpSgFKUoBSlKAUpVO3y9oMVo/u0CG4uzyhTkmcYMrfZ01xz9Ac0BcKhtpb3WMGRNdwKRzXtFLA/uAlv0qgHZF7f9/aN4yof/LW54IwOfCx+38+L1rbtt1rG30S2jJ8XHEfq2ausbZRzSJt/a1skHHvWfSGf/8AOs9l7TtlSnC3iA/jWRB9XUCo62t4fhEMY8MIv9K9T7Gt3GHt4m9Y1P8AKpeNohTR99pUkV1s8TQSJMkE8ErGNw4CK+HJ4SeSsSfIE9K3aq20vZ1ZyBjGjQMQRxRMQMHmCpyCPKtLi2ls8a/+NtlHpKijr+LHz+VTFOPZEnuOi7sKqmZc993D46lRHGmnkCvy4h41O1znY+34byPtLWbhkQ5GR3o2/GmdVPIjkQTrnlbt3dvLcqykcE0eBNFnVGPIg/aRuat1HgQQKSXkvF+CZpSlVLClKUApSlAKUpQClKUApSlAKUpQClKwXVysUbyueFEUsxPRVGSfoKAqHtK3ukthHZ2neu5/h5Hso+RlYfXGdNCemDAbu7BS2Q4PHK+ssras7E5OSdcZqP3T47qWfasw79wxEQ+5Cp4VUfQD8vmasyjOgroxwpWYzlbozWXM+lfJLdsnSti3i4R59ay1Zy5KVwYLe34dTzrPSlQ3ZYUpSgKvvJujxv71Zt2F0uoZdFk/C45a+P1zWls7akl3+0hPu+07bIKnk657yMD8UTafunB8zdap+/2zWiK7Ut9JrfBkHSSHkwbxwD9M+AqkkWTL5uXvUl/EW4eznjPBPCT3o3/iVODg+R8DVhrjO1NrGKWHbNmM9xe3jGnaQn4lb8S+PTA8K63svaEdxEk8TcSSKGU+RGRkdD5Vk1RonZt0pSoJFKUoBSlKAUpSgPlK+E41Ncp3/wDaDN2kMdrxpA6s5cEI8ycQAMbkExr1B0JyOQqYxcnSKykoq2dK2jtWGBeKeaOIdC7qufIZOp8hUFd7/QLgxQXUy/ejhwB8pGRm+QNU7d3aVnK/FGOGdh3hLkyHx/aMSZPUE1L320I4hxSOF8AebeSqNWPkBXZDSJq2zzsmvknUY/ks+xd8bO6bs4pgJesUgKSA9R2bgE48sior2ybQaHZUwT4pSkQ9HbvD5qGHzqnbZmS6HD7shHR5l19UUHjHzK1oX08r7HiE0jyhNqhFLkkiJUYBSTrjOeZ61nm00sdN9M6NPq45rS7XZedmbPWKCKDAxGir9AAT8zrW0kYHIV7pQ0FKUoBSlKAUpSgFeJog6sjDIYEEeIIwRXulQDmm44Iglt317GWSMg+GdR9c1b/YxfmM3OzGJPu78cWT/dSa8I9Dr6uaqm7Rzc7QI5e8t9eJ81K7pz9nt+ID+/tnVvy8Tj/QKzkvtLr+o6/SlKzNBSlKAUpSgFKUoCve0WRl2XdlefYuNPAjDH6E1y/2mxBWtCo7vBIg+XZlR9Aa7RfWiTRPDIOJJFZHHirAhh5aGuabX2Bcwwe63Nq17brpHNBjtVUaIWhJDcYGnEh5etaY57XZnkhujRzZlBxnXHLyPiD0NW/Y0QMUchGXZFLO2rMSoOrHU1Wp9nEFhAzSBD34nUrNGPNDjjH6+tS2znuniSOKHsgFRTJLochQDwx8z6mvUwanHF7n6/2eLq9HmnHZH374Ja9vo4V4pHCjpnmfIDmT6Vt3OwZX3enLRvG4lkuUVxwtwB+LJXmD2fEcelW3czdC0hRLoAzTMoPbS4ZlP2lRfhjwcjC69MmrVLGGBVgCCCCCMgg8wR1Fcmr1bz0kqS/J26DQLSptu2+/RS9i34nt4p1OQ6K3zI1HyOR8q3KrOw7c7Ou5NlyE9k2ZbRzyaM6vFn7yn66nTIqzVjF2jrapilfCaj7veG2ikWKWZEdgCoY44lOgIY6EZHjUkEjSvgPWvtAKUpQCtTa9+tvBJO/wxoW9cDQfM4Hzrbqgb/7SN1Omy4ToCHuGHQDUIf4+vDUN0iUrNXcO3K23at8Uzs5+ZwP4E/OpfdKAy7fjYcoLZ2by4uJR/wDYKyqqxJjRURfooH9BUn7Ftnl0uNpOCDdScMYPSGPIBB8zp+QVSfCotHl2dHpSlZmgpSlAKUpQClKUApSlAQO9G68N4oLDgmTWKZdGRugJ+0h5FToR4HBFGXPUYPUeddB3g2h2arGn9pLkL+FRjjc+mQB+Jl6Zqo7R2b200VvF3WlyZCPsQLjtH8jqqDzcHoa0hwmzOXLos24yn3NCeTNIV/dMjFT6H4h61PVht4VRFjRQqqAqqOQUDAAHgBWas2aEHvfu2l9B2ZYpIh44ZV+KKUcmHiOhHUeeCK1sPaLuXgnUJcwELMgOh07sqeKMNR4ZxXQKre+OwmmC3VuB7zCDwdO1j5vbufBuhPwtg6a5tGVMrJWYNnKJLlImGQEeTHQlWjVQR1HfJx4gVI7U3UtLi4ju54Q80OOBiW0wSy5UHDYJJGRVdtrtpBDeWpHGFOFfIDI2O0hfGqHiVdQDgpyIyDIzby3bLwx2iI/35JgUHmAq8T+ndz4ipkm2RFpI0dm2+L24sYziNHDLyxHGY43eNR5PIMDkA46Lg/N4vZ/JNdwz295JDGmO0jDOS2GJJVuLqO7g6DGnhXnZmbORZ345Q3a+8yBSXLSGM9sEXmAY1XhUaKRjOKnZN97EDK3McjdI4yXcnwEa5bPyqHa4JVdkPZuyyS28jcTwsBx4xxxsoaNyBoDgkHGmVOMA4rbrR2eHd5rqZeB5mB4M/wBnEqhY0Y8uLALHGmWI6VTt4N6p7uRrXZ3dQHEtz081Q/zGp6aa1onS5KNc8G/vlviY29zs/wBpctoSNRF4k9OLy6dfCtHdvYgt0JY8crnMkh5kk5xnnjP1r3sLYUVsuEGXPxSH4mPr0HlW3MZZJFtrZQ88g7oPwxpnDTSHoi/qcAZNOuWR3wjVmspL+ddmwkgHDXUg/u4c/Dn77cgP5Zrr9laJFGkMahURQqqOigYA+lVHZNgtlEba2fLkkz3JUF5JftcIORpy1yFxjBOSMF5aQSviZzI5+y8zH6IWwo8gAKq05cl7UeC+18rn67E7PvWs81s/QpIzJ+aGQsjD5Z86k93t637UWd8qxzNnspVyI5wOfDnVJB1QnzBNVcWiVJMt1KUqpYUpSgFKUoBSlQW/e0TBs+6lU4ZYmCnwdhwqfkWBoCDsb33h5LvOVkYrF/yEJCH8x4pPzgdK29wY+0a5vDzeUxR+HZQkrkeshkJ9B4Vr7LtRFDHEvJEVR8lArL7IZc7OVCe/FNcJIPB+2diD8mB+daT4SRnHl2XGlKVmaClKi94tuw2cLTzthRoqjVpHPwxxr9pj4fM4AJoCtxxiO6u4l+ESq4HgZIkd/q5ZvzVt1CWV4/E7umbm5btXiDaRJhUjDvjQKiKucZYhsDwkUt3ODJIc+CDhX+bfr8q3j0ZS7NqvmK+RrgYyT616qSpWd73lnYWEGQGHFcOvNYidIwfvPg+gHnXux2AYkEcaBVXkMj6+Z86nLe3CFjzZ2LE+PID6KFHyrPHBJISkOM9XbVU8yMjiP4QRnTUA5qOuWT3wVmWzmaRYIk4pn1AJ7qL1lkI+FB9SdBrW5t++XYkcSRJ2ktyXM1wwy3cCjIjyMgdoOFAwAAPMkk3bZOyUgUhMlmOXdtWdsY4mPpoAMADQACqD7dojizk6B5lJ/eRWH+j9KrF7ppPomVxg2u6NDY91FKFjF/I+AAIwwiOg8AFkJ8+I1Jw7Ct1BAgj73xFlDFv3mbJb5muXOgOAcH1qb2FPJKTFJLIY1XRO0bHMDBIOSMdCcV6ePGr2pI8XNke1ycnSLO+10spUj7YPC5CmNn4ngJ0Vwc57POhDcsjGmlS+9WxVu7Z4D8WMxt92QfAfrofImqvc2SCGSNVVVKMCAAOYOvrVs3XnL2du7HJaKMk+J4Rk/WsdVg+OS/udP0/VfPB/4+/Jpewy+aVLgMzd3ssoT3UkPah+BBhUB4RoAK6XXOvY/EEn2ogGous/lPGVHy1+tdFrzpO2epFUj7SlKgsKUpQCql7XEJ2TdcPQRk/urNGzfoDVtrXvbVJY3hkHEkisjDxVgQw+hoCq20odFdTlWUEHxBGQahZY7ixuXvLJO1jlx7zbcWOJgNJojyD+I6/wjLC9k2TJ/s+/z2GT7tc47jR50Rz9kj9PTBq3xSq6hlIZTqCDkEeII51txJGXMWeLL2p7ObCyyPbydY543UqfMgFfnmt669oWzI14mvoSPwNxn/KmT+laF1ZRyjEsaOPB1B/iK1otg2ynK20IPiIk/pVfjJ3ni99pva/s9mW0lyxBxK6mOJT0JLYZseGmehqM/wBmyIX2ltKX3ieNHdVAxHAoHEViTx0xxc/nqbFLIqLxMQqjmSQAB6nQVW9rbbN3HLa7Phe6dkdHdMLFHlSDxTN3ScHRQdabVEbmzf3PjJtknfWW4AlkbxLDKr6KuFA8BW1f3uFbgYAhhGG0OZmXiCBfwp+0YnkBpknSM9nN12mzrc9VUofyMVA+gFRez9qdtcW8OQeyiupnx/jSXToeIeKquB5NVvSI9suNuRwgBi2Op5nzNYra54pZE6JwEacweIEg9RlSPUEdKwLNwJJJ0VGb6DP8qy7fUWt1a8Z7s8XYlzy7aMl4wegL9pL6kVaTp0RFWrIyezN5M/G7LBCxRVjYq0knCO0LuuGCDPDwgjJBJ6V4TdKzUdpGjwkMR2scsyEODjVw2jciM88gjINSZgkiZ2iCsrniZC3CQ2ACynBznAyD1yc64qNvbKWMtcxy9lNIcSKO/E68IVY5I2wHAVeeh7xxiqtEpm3Dd7QszmOQ3sA5xzECUD/hz4w58nHlmp1TZbZtSrDjUHvI2VkglGRqOcbjXyOvMGqbsbb8yXAt7iNEjl/sWR2ZRIBloxxDiVW1Kqc8PwgkYxu7bLWco2pCO9HgXKDlNb572R99PiDeRHKquPlEqXhkRt/2TXMRLWkizp0jkISQDwD/AAP6nhqu7ESWG4eGSCYScOOzETlz3tMAAgjnrnHnXZzvls8KGN9bYIz/AG8efpxZqHvfaba6pZrLdyDQLDG3DxfilYBQvmM1ri1OSDtc/qYZtHiyRafF+ijb07PvorfjeNIu1YRxxO4aWRn07qplVwMnVjyq77Is+yhih59miJnx4VAz+lRljs6eef36/ZTKoIhhQkxwKeePvORjLf8ATGPfXbZhjFvB37q47kMa/FltC/kBrqevoaTyzm903YxafHhWzGqNv2NoXO0LrPdmumC+YTOD56OPpXQ6g9yNgCxsobUHJRcufGRjxOR5cRIHkBU5XMdYpSlAKUpQCsFxMsas7sFVQSzMQAqjUkk6AAVmrnm9kxv782GT7tahHnUaCWdhxRxseqquGx4nXkMSlZDdGTbe+sN0jRW+z5L6I82cLHE3TKPJqSNdQvoaobQJbPxL79ssE65AuIAfMghh8w1dGkukjKxAMWIyscaMzcIwCeBASFGQM8tQKykhhwspGRqroVOPNWAOPlWmxeym9+iuWGyNsTIJIL6wmjb4ZAG1H5UwD5Vtxbl7Yl0m2lDCP+BDxH6sFI+tas27k1tIbnZUvYSHV4G1hl8in2T5j5Y51K7I9qMQYQbSiazn8WBMTeayDkD56DxNVe5FltZ72f7KLUFXu5Z7txr+2kPBnxCDp5EkVdLS2SJBHGioq6KqKFUDwCjQV4stoxTLxwyxyL95HVh9Qagd69+7SyjYtKkkw0WCNgXZ+ikDPAM8yf1OhoWKX7L14IbmHORFdSqPQcP/AF+tQWy4Bb7wTRNoswcr+cCT/UGFWn2fbLkgti0+ks0jyuDzBbGh88DPzqr+1WCZL60uLdSZSCECjJLRtxAYGp0flWvSTMu2y8bajJhkhTQvG6/NlIFTNxZw7Y2YgY8ImRXDLqYph1HmjgqRpyI0qG2FtOK8t0nTkw1GdVb7SH0P9a14r2bZkrzRxtNZysXliQZkhlPxTRj7StjvL0Oo60mrVoRdOmRg27c7NIg2rC5QaJdxgsjjpx45N+vl1O7d7xW00Y7KeJ8nOA4zjHVTqOfWrbZb6bOuEyt3bkMNUeRVOOoaN8EfMVTN7Zd3RqYYZ5ScLHaZyzeZiYINT1OfWqqTRZxRAb1T961SMjtDcxFQDrodT+o+tdBuog6MjDIZSCD4EYNUbcTcrs5mvpoRDqext+It2YPIszalsePrpoBc9sXJjhd1Us+MIo5tI3djQeZcgfOrr2yr9Ir3s+2XA9hbu8ERfDAsY1JOHYAk4ydAKm7/AGrbWq4lljiAGQpIB+SDU/IVJbK3At47aKCQysURQ3DPMis+O+eFHAALZOPOpDZm51jbniitYg2c8bLxvn998t+tV30i22ykR7avL3ubNtW4WH+8zgpEB95ARmT5fSrNufuPHaO1zNIbi7f4pnHwg/YjX7A6f0GlWylUcmyySR9pSlQSKUpQClKUB8rnOzDwbQ2jE3x9skgz1jeJeEjxAwRXRqqG/O7srul/Z495hUqYycCeHOTET0YHJU+J16YtF0yJK0acW0BZ3bXEoPYTRJG8gBPYujOUZgNRG3aEEjkQudNRdMJKgPddGGQRgggjQgjy6iucx77WmCszmCQaPDOrK6nqpUjvfKpv2TQutm7FGSJ55Xt0bI4bduHgwp+FSeIgeeetTOu0VjfTM+1Yzbn9p8BOEk6ZPJX6KxOg6HTGpxUZdhJV4Jo0kU/ZZQR+tXmeFXUo6hlYEMrAEEHQgg8xVJ2xurcW+Xsf28f/AKeR8Oo8IZjzH4X8NG6VaE11IiUH4IZvZ9s5+97vj913H6cVSGyd1LS3PFBborfeOWYejMSR8qj7LfK3RjHc9pbSg6xzoyn1B5Eeealf+0tpw8XvUGPHtk/rVvt8Ffu8knVW2ye12xsy3T4o3klbyQAEZ9ezP6V5vN+EkbsNnxPdztyEangU/ed/D008xVm3A3Oe1aS8u3El5OO+w+GNNCIk8tBk+QA5ZNZSVUWhF9n3am6zQzNdWKj9ocz2+QqyH/FiJ0SToQcK3Ug6mNfeKHVUEkjqSGjRCSrA4KuThUIP3iKnfaQW/wBnTcJIyYw2CQeAzIJBkdChYehqjWu1JIQFZTLGORUDjUea6Bx6YPrW+mwyyRb8I5NXqo4ZKPl9X0ZdpbLjmPaybNgbxBkUSn6LwZ8i/wA62t2rmwDGOCJLeYc4njCSfr8Y8wSK2tn7SjmXiikDAcxyKnwZTqp9RTaWy4Z14JolcdMjUeasNVPpW0tNFq4s5Ya2SdZESc9yqY4jgk4UDJZm+6qjVj5AZqQ2Jsl2cTzrw8P9lEcEqSMGSTGnHgkAAnAJ1JPdp9gZtml5YZEliOrpcsAwUDQJc81GNArggeWTVw3P3xg2ijGHiV0xxxuNQCSAwYZV1JU4IPTpXHljKPDR6WHJCauLLHSlKxNxSlKAUpSgFKUoBSlKAUpSgMM1sjEFkVipypIBIPiCeVZqUoBSlKA1L/ZsM68E8SSr92RFYfQiof8A7vtmc/cYP8lWOlAalhs6KBOzhiSNOfCihRnxwBzrbpSgNHbViJ4JYCcdojLnGcEggNjyOD8q5VcF4ZTb3CdlKM4H2XX78T/bXy5jqBXYqjtt7Fhu4zFcRh15jPNW6MjDVWGeYrp02qlgla5T7Rxa3Qw1MUnw10zlFzYo7BxlJBydDwsPmOY8jkVjvd57m3UI6pKzZCSfDyGvGg5n90jPlUvtzdi6sssnFdWw+0BmWMfjUf2ij7yjPPI0qo7y3qOsLo4ZcvqDp8PXw+deq8uLLByjw/Ps8OGDUYMqxzVx5r1149Edf3kkzcc0hcjkD8K/uoNF9efnV+9hKZlvG8EgX6mYn+VVvdXca6vsOo7GE/3zqe9/yo9C/P4jheeprr2626sFhGY4AcsQZJHOXcjkWPIYzoAAB4amvM1GSDVRPb0+Gae6XBO0pSuQ7hSlKAUpSgFKUoBSlKAUpSgFKUoBSlKAUpSgFKUoBSlKAVAXG5Vg8/vTWsZl5kkHhLa99os8DNqe8RnzqfpQClKUApSlAKUpQClKUApSlAf/2Q==;" vertex="1" parent="fT3RPPVzGP8Eb9JpN_7Q-1">
          <mxGeometry x="561" y="104" width="32.88" height="36" as="geometry" />
        </mxCell>
        <mxCell id="XeP2XozeaBdxD3bJYFSb-27" value="Pool" style="swimlane;html=1;childLayout=stackLayout;resizeParent=1;resizeParentMax=0;horizontal=0;startSize=20;horizontalStack=0;" vertex="1" parent="fT3RPPVzGP8Eb9JpN_7Q-1">
          <mxGeometry x="80" y="170" width="450" height="430" as="geometry" />
        </mxCell>
        <mxCell id="XeP2XozeaBdxD3bJYFSb-32" value="ITZBund&lt;br&gt;" style="swimlane;html=1;startSize=20;horizontal=0;" vertex="1" parent="XeP2XozeaBdxD3bJYFSb-27">
          <mxGeometry x="20" width="430" height="120" as="geometry" />
        </mxCell>
        <mxCell id="XeP2XozeaBdxD3bJYFSb-39" value="Agentur - Entwickler" style="swimlane;html=1;startSize=20;horizontal=0;" vertex="1" parent="XeP2XozeaBdxD3bJYFSb-27">
          <mxGeometry x="20" y="120" width="430" height="160" as="geometry" />
        </mxCell>
        <mxCell id="XeP2XozeaBdxD3bJYFSb-43" value="Kunde BBK" style="swimlane;html=1;startSize=20;horizontal=0;" vertex="1" parent="XeP2XozeaBdxD3bJYFSb-27">
          <mxGeometry x="20" y="280" width="430" height="150" as="geometry" />
        </mxCell>
      </root>
    </mxGraphModel>
  </diagram>
</mxfile>
